<svg fill="none" height="60" viewBox="0 0 272 60" width="272" xmlns="http://www.w3.org/2000/svg"><g fill="#fff"><path d="m110.432 52.464c-.288-.48-1.504-2.4-1.936-2.992v-.496h1.936v-1.376h-1.936v-3.008h-1.456v3.008h-2.176v1.376h2.064c-.464 2.064-1.408 4.48-2.416 5.744.256.4.592 1.056.736 1.472.656-.96 1.296-2.416 1.792-3.984v7.056h1.456v-7.952c.4.8.848 1.664 1.056 2.192zm8.768.24v-1.36h-3.536v-2.528h3.056v-1.36h-3.056v-2.864h-1.456v2.864h-1.376c.144-.608.272-1.232.368-1.888l-1.376-.224c-.256 1.856-.752 3.696-1.568 4.88.32.16.928.544 1.184.752.384-.592.72-1.328.992-2.16h1.776v2.528h-3.664v1.36h2.896c-.88 1.904-2.336 3.696-3.856 4.656.32.272.768.784.992 1.152 1.408-1.008 2.688-2.688 3.632-4.56v5.312h1.456v-5.424c.768 1.776 1.824 3.504 2.896 4.544.256-.384.736-.896 1.088-1.168-1.232-.992-2.448-2.736-3.2-4.512zm6.448-.256h2.8v-1.44h-6.944v1.44h2.656v4.288c-1.216.224-2.32.432-3.184.576l.432 1.504c2.048-.448 4.912-1.072 7.568-1.68l-.112-1.344c-1.072.224-2.16.448-3.216.64zm5.696-6.976c.784.56 1.712 1.392 2.16 1.952l1.04-.928c-.464-.544-1.44-1.328-2.224-1.84zm3.76 3.408v-1.456h-4.592c-.032-.896-.048-1.84-.032-2.768h-1.6c0 .928.032 1.856.064 2.768h-8.016v1.456h8.112c.4 5.76 1.664 10.416 4.304 10.416 1.328 0 1.856-.784 2.112-3.664-.416-.144-.976-.496-1.312-.848-.096 2.08-.288 2.944-.672 2.944-1.392 0-2.512-3.808-2.864-8.848zm5.44.544c1.424-1.072 2.64-2.272 3.408-3.392.848 1.168 2.16 2.368 3.6 3.392zm-.304 1.376h7.488v-1.248c.928.656 1.904 1.216 2.832 1.664.256-.448.592-.976.944-1.344-2.496-.976-5.152-2.928-6.848-5.28h-1.536c-1.2 1.952-3.808 4.256-6.544 5.504.32.32.72.88.88 1.216.96-.464 1.904-1.04 2.784-1.664zm-2.752 3.056h3.968c-.384 1.072-.96 2.352-1.488 3.344l-2.368.08.192 1.456c2.72-.112 6.784-.288 10.592-.48.288.384.528.736.704 1.04l1.36-.848c-.736-1.184-2.256-2.88-3.712-4.112l-1.28.688c.624.56 1.264 1.232 1.856 1.904-1.952.08-3.936.16-5.712.224.576-1.024 1.168-2.224 1.696-3.296h7.328v-1.392h-13.136zm21.984-.288c-.368-.336-1.696-1.488-2.448-2.096.8-1.056 1.504-2.224 1.984-3.44l-.832-.56-.256.048h-1.104v-2.944h-1.472v2.944h-2.416v1.36h4.192c-1.088 2-2.928 3.856-4.752 4.896.224.288.592.992.736 1.376.752-.48 1.52-1.088 2.24-1.792v5.904h1.472v-6.368c.656.656 1.376 1.424 1.744 1.888zm4.448 3.776v-6.272h3.232v-1.44h-3.232v-4.928h-1.52v4.928h-3.232v1.44h3.232v6.272h-3.872v1.472h8.96v-1.472zm20.202-8.016h-3.92v-.832h3.168v-.864h-3.168v-.8h-1.344v.8h-3.008v.864h3.008v.832h-3.856v.88h9.12zm-3.808 4.208h2.384c-.4.32-.864.656-1.296.944-.416-.288-.8-.608-1.088-.928zm-3.136-1.888h4.8v1.088h-4.8zm6.112 1.6v-2.416h-7.36v2.704h2.736c-1.088.816-2.576 1.488-4 1.936.256.224.656.72.832.96 1.056-.4 2.176-.944 3.168-1.584v2.032h1.312v-2.256c.992.96 2.368 1.76 3.712 2.176.176-.272.528-.736.784-.944-.768-.192-1.536-.496-2.24-.88.592-.336 1.264-.784 1.84-1.248zm-8.976 4.048v-10.72h10.496v10.72zm-1.392-12.064v14.032h1.392v-.624h10.496v.624h1.456v-14.032zm19.76 9.504h-.864v-9.808h-1.2v9.808h-.816v-7.44h-1.072v10.112h1.072v-1.472h2.88v.992h1.04v-9.632h-1.04zm5.328-1.024v1.664h-1.936v-1.664zm1.216 2.736v-3.792h-4.336v4.672h1.184v-.88zm-4.352-6.096c1.728-.384 2.752-.96 3.392-1.824 1.136.592 2.448 1.328 3.216 1.824zm8.096 0h-1.28l.848-.944c-.88-.544-2.464-1.36-3.728-1.952.032-.128.064-.24.096-.368h3.584v-1.216h-3.36c.032-.4.064-.832.08-1.296h-1.376c-.016.48-.048.912-.096 1.296h-3.392v1.216h3.12c-.416 1.152-1.328 1.792-3.376 2.192.256.256.576.736.704 1.072h-.912v1.248h6.64v6.032c0 .24-.08.304-.336.304-.272.016-1.136.016-2.08-.016.208.368.432.944.512 1.344 1.232 0 2.064-.032 2.592-.24.544-.224.704-.608.704-1.36v-6.064h1.056zm2 3.376c-.16 1.376-.464 2.784-.944 3.744.304.112.896.384 1.136.56.496-1.024.864-2.576 1.072-4.08zm4.336-1.12c.128.336.224.64.288.896l1.136-.544c-.224-.88-.88-2.24-1.536-3.28l-1.072.464c.24.4.464.832.672 1.28l-2.128.08c1.072-1.328 2.272-3.088 3.184-4.544l-1.264-.544c-.416.832-.992 1.824-1.616 2.784-.208-.288-.48-.608-.784-.928.576-.864 1.248-2.128 1.824-3.216l-1.344-.48c-.288.864-.816 2.016-1.312 2.896-.144-.128-.288-.256-.432-.384l-.72.992c.704.672 1.52 1.536 2.016 2.24-.32.448-.624.864-.928 1.248l-1.12.032.128 1.312c.736-.048 1.584-.096 2.496-.144v6.512h1.328v-6.592zm-.832 1.408c.4.976.832 2.24.976 3.072l1.184-.416c-.176-.816-.608-2.064-1.04-3.024zm4.288.704h3.6v2.752h-3.6zm3.6-7.952v2.624h-3.6v-2.624zm0 6.608h-3.6v-2.64h3.6zm1.504 4.096v-12.048h-6.56v12.048h-1.584v1.344h9.296v-1.344z"/><path d="m71.25 18.3594h-6.1094v-1.875c0-.875-.0781-1.4323-.2344-1.6719-.1562-.2396-.4166-.3594-.7812-.3594-.3958 0-.6979.1615-.9062.4844-.198.3229-.2969.8125-.2969 1.4687 0 .8438.1146 1.4792.3437 1.9063.2188.4271.8386.9427 1.8594 1.5469 2.9271 1.7396 4.7708 3.1666 5.5312 4.2812.7605 1.1146 1.1407 2.9115 1.1407 5.3906 0 1.8021-.2136 3.1303-.6407 3.9844-.4166.8542-1.2291 1.5729-2.4374 2.1563-1.2084.5729-2.6146.8593-4.2188.8593-1.7604 0-3.2656-.3333-4.5156-1-1.2396-.6666-2.0521-1.5156-2.4375-2.5468-.3854-1.0313-.5781-2.4948-.5781-4.3906v-1.6563h6.1093v3.0781c0 .9479.0834 1.5573.25 1.8282.1771.2708.4844.4062.9219.4062s.7604-.1719.9688-.5156c.2187-.3438.3281-.8542.3281-1.5313 0-1.4896-.2031-2.4635-.6094-2.9219-.4167-.4583-1.4427-1.2239-3.0781-2.2968-1.6354-1.0834-2.7188-1.8698-3.25-2.3594-.5313-.4896-.974-1.1667-1.3282-2.0312-.3437-.8646-.5156-1.9688-.5156-3.3126 0-1.9374.2448-3.3541.7344-4.25.5-.8958 1.3021-1.5937 2.4062-2.0937 1.1042-.5104 2.4376-.7656 4-.7656 1.7084 0 3.1615.276 4.3594.8281 1.2084.5521 2.0052 1.25 2.3906 2.0938.3959.8333.5938 2.2552.5938 4.2656zm17.6562 7.1562c0 2.5417-.0624 4.3438-.1874 5.4063-.1146 1.0521-.4896 2.0156-1.125 2.8906-.625.875-1.474 1.5469-2.5469 2.0156-1.0729.4688-2.3229.7031-3.75.7031-1.3542 0-2.5729-.2187-3.6563-.6562-1.0729-.4479-1.9375-1.1146-2.5937-2-.6563-.8854-1.0469-1.849-1.1719-2.8906-.125-1.0417-.1875-2.8646-.1875-5.4688v-4.3281c0-2.5417.0573-4.3385.1719-5.3906.125-1.0625.5-2.0313 1.125-2.9063.6354-.875 1.4896-1.5468 2.5625-2.0156s2.3229-.7031 3.75-.7031c1.3541 0 2.5677.2239 3.6406.6719 1.0833.4374 1.9531 1.0989 2.6094 1.9843.6562.8854 1.0469 1.849 1.1719 2.8907.125 1.0416.1874 2.8645.1874 5.4687zm-6.5781-8.3125c0-1.1771-.0677-1.9271-.2031-2.25-.125-.3333-.3906-.5-.7969-.5-.3437 0-.6093.1354-.7969.4063-.177.2604-.2656 1.0416-.2656 2.3437v11.8125c0 1.4688.0573 2.375.1719 2.7188.125.3437.4063.5156.8437.5156.448 0 .7344-.1979.8594-.5938.125-.3958.1875-1.3385.1875-2.8281zm23.7339-6.5v25.2969h-5.765l-3.422-11.5v11.5h-5.5v-25.2969h5.5l3.687 11.3907v-11.3907zm17.688 14.8125c0 2.5417-.062 4.3438-.188 5.4063-.114 1.0521-.489 2.0156-1.124 2.8906-.626.875-1.474 1.5469-2.547 2.0156-1.073.4688-2.323.7031-3.75.7031-1.355 0-2.573-.2187-3.657-.6562-1.073-.4479-1.937-1.1146-2.593-2-.657-.8854-1.047-1.849-1.172-2.8906-.125-1.0417-.188-2.8646-.188-5.4688v-4.3281c0-2.5417.058-4.3385.172-5.3906.125-1.0625.5-2.0313 1.125-2.9063.636-.875 1.49-1.5468 2.563-2.0156s2.323-.7031 3.75-.7031c1.354 0 2.567.2239 3.64.6719 1.084.4374 1.953 1.0989 2.61 1.9843.656.8854 1.047 1.849 1.171 2.8907.126 1.0416.188 2.8645.188 5.4687zm-6.578-8.3125c0-1.1771-.068-1.9271-.203-2.25-.125-.3333-.391-.5-.797-.5-.344 0-.61.1354-.797.4063-.177.2604-.266 1.0416-.266 2.3437v11.8125c0 1.4688.058 2.375.172 2.7188.125.3437.407.5156.844.5156.448 0 .734-.1979.859-.5938.125-.3958.188-1.3385.188-2.8281zm20.047-6.5v5.0625l-4.907 15.1719h4.907v5.0625h-12.125v-3.6719l5.062-16.5625h-4.468v-5.0625zm13.078 0 3.765 25.2969h-6.734l-.328-4.5469h-2.359l-.391 4.5469h-6.812l3.343-25.2969zm-3.485 16.2657c-.333-2.8646-.666-6.4011-1-10.6094-.666 4.8333-1.083 8.3698-1.25 10.6094zm24.047-16.2657-3.765 11.4219 4.125 13.875h-6.797l-2.656-10.8438v10.8438h-6.578v-25.2969h6.578v9.8281l2.922-9.8281zm8.094 0v25.2969h-6.578v-25.2969zm23.656 11.0313h-6.578v-4.4063c0-1.2812-.073-2.0781-.219-2.3906-.135-.3229-.442-.4844-.921-.4844-.542 0-.886.1927-1.032.5781-.145.3855-.218 1.2188-.218 2.5v11.75c0 1.2292.073 2.0313.218 2.4063.146.375.474.5625.985.5625.489 0 .807-.1875.953-.5625.156-.375.234-1.2552.234-2.6406v-3.1719h6.578v.9844c0 2.6146-.187 4.4687-.562 5.5625-.365 1.0937-1.182 2.0521-2.453 2.875-1.261.8229-2.818 1.2343-4.672 1.2343-1.927 0-3.516-.3489-4.766-1.0468s-2.078-1.6615-2.484-2.8906c-.406-1.2396-.61-3.099-.61-5.5782v-7.3906c0-1.8229.063-3.1875.188-4.0938.125-.9166.495-1.7968 1.109-2.6406.625-.8437 1.485-1.5052 2.579-1.9844 1.104-.4895 2.369-.7343 3.796-.7343 1.938 0 3.537.375 4.797 1.125 1.261.75 2.089 1.6875 2.485 2.8125.395 1.1146.593 2.8541.593 5.2187zm17.391 3.7812c0 2.5417-.062 4.3438-.188 5.4063-.114 1.0521-.489 2.0156-1.124 2.8906-.626.875-1.474 1.5469-2.547 2.0156-1.073.4688-2.323.7031-3.75.7031-1.355 0-2.573-.2187-3.657-.6562-1.073-.4479-1.937-1.1146-2.593-2-.657-.8854-1.047-1.849-1.172-2.8906-.125-1.0417-.188-2.8646-.188-5.4688v-4.3281c0-2.5417.058-4.3385.172-5.3906.125-1.0625.5-2.0313 1.125-2.9063.636-.875 1.49-1.5468 2.563-2.0156s2.323-.7031 3.75-.7031c1.354 0 2.567.2239 3.64.6719 1.084.4374 1.953 1.0989 2.61 1.9843.656.8854 1.047 1.849 1.171 2.8907.126 1.0416.188 2.8645.188 5.4687zm-6.578-8.3125c0-1.1771-.068-1.9271-.203-2.25-.125-.3333-.391-.5-.797-.5-.344 0-.61.1354-.797.4063-.177.2604-.266 1.0416-.266 2.3437v11.8125c0 1.4688.058 2.375.172 2.7188.125.3437.407.5156.844.5156.448 0 .734-.1979.859-.5938.125-.3958.188-1.3385.188-2.8281zm13.062 13.6407v5.1562h-4.765v-5.1562zm8.469-20.1407v20.2344h4v5.0625h-10.578v-25.2969zm18.859 0v5.0625h-3.906v20.2344h-6.578v-20.2344h-3.89v-5.0625zm1.5 0h4.922c3.177 0 5.323.1459 6.438.4375 1.125.2917 1.979.7709 2.562 1.4375.584.6667.948 1.4115 1.094 2.2344.146.8125.219 2.4167.219 4.8125v8.8594c0 2.2708-.109 3.7916-.328 4.5625-.209.7604-.578 1.3593-1.11 1.7969-.531.427-1.187.7291-1.968.9062-.782.1667-1.959.25-3.532.25h-8.297zm6.579 4.3281v16.6407c.948 0 1.531-.1875 1.75-.5625.218-.3854.328-1.4219.328-3.1094v-9.8281c0-1.1459-.037-1.8802-.11-2.2031-.073-.323-.239-.5573-.5-.7032-.26-.1562-.75-.2344-1.468-.2344z"/><path d="m23.8203 6.91151.18.11147.18-.11147c.6897-.42628 1.4151-.80503 2.1571-1.12602l.632-.27357-.5996-.33899c-.7158-.40519-1.4776-.7396-2.2635-.99441l-.106-.03497-.1059.03507c-.786.25481-1.5478.58912-2.2634.9944l-.5998.339.632.27356c.7419.321 1.4675.69975 2.1571 1.12593z"/><path d="m48 21.261c0-5.2743-2.821-10.2057-7.3667-12.89431-2.6882-4.54556-7.62-7.36669-12.8945-7.36669-1.2622 0-2.5192.15975-3.7388.47381-1.2196-.31406-2.4766-.47381-3.7387-.47381-5.2746 0-10.2064 2.82113-12.89461 7.36669-4.54556 2.68861-7.36669 7.62001-7.36669 12.89431 0 1.2624.160125 2.5194.473812 3.739-.313687 1.2196-.473812 2.4766-.473812 3.739 0 5.2743 2.82113 10.2058 7.36669 12.8944 2.68821 4.5455 7.62001 7.3666 12.89461 7.3666 1.2621 0 2.5191-.1597 3.7387-.4738 1.2196.3141 2.4766.4738 3.7388.4738 5.2745 0 10.2063-2.8211 12.8946-7.3667 4.5456-2.6886 7.3666-7.62 7.3666-12.8943 0-1.2624-.1601-2.5194-.4738-3.739.3137-1.2196.4738-2.4766.4738-3.739zm-5.9196 11.0526-.1413.1169.018.1816c.0463.4746.07.9507.07 1.4144 0 2.4938-.6557 4.9478-1.8953 7.1049-2.1571 1.2399-4.6119 1.8952-7.1056 1.8952-.4633 0-.939-.0234-1.4136-.0693l-.1824-.0187-.1161.1426c-1.9046 2.3224-4.4326 3.9573-7.3141 4.7366-2.8814-.7793-5.4095-2.4142-7.3141-4.7366l-.1161-.1426-.1823.0187c-.4747.0459-.9504.0693-1.4137.0693-2.4937 0-4.9485-.6553-7.10555-1.8952-1.23947-2.1571-1.89525-4.6111-1.89525-7.1049 0-.4637.02381-.9398.07012-1.4144l.01791-.1816-.14137-.1169c-2.32247-1.9045-3.95822-4.4318-4.73672-7.3136.7785-2.8818 2.41425-5.4091 4.73662-7.3136l.14138-.1169-.01791-.1816c-.04631-.4746-.07012-.9507-.07012-1.4144 0-2.4938.65578-4.9478 1.89525-7.10488 2.15714-1.23993 4.61184-1.89525 7.10564-1.89525.4632 0 .9389.02344 1.4136.06938l.1824.01866.116-.1426c1.9047-2.32237 4.4328-3.95737 7.3142-4.73662 2.8815.77925 5.4095 2.41425 7.3141 4.73653l.1161.14259.1824-.01865c.4746-.04594.9503-.06938 1.4136-.06938 2.4937 0 4.9485.65531 7.1056 1.89525 1.2396 2.15707 1.8953 4.61107 1.8953 7.10487 0 .4637-.0237.9398-.07 1.4144l-.018.1816.1413.1169c2.3224 1.9046 3.9582 4.4318 4.7367 7.3136-.7785 2.8819-2.4143 5.4092-4.7367 7.3137z"/><path d="m36.6634 12.0817.0486.2057.2061.0491c.7863.1854 1.5644.4301 2.3145.7263l.6405.254-.1847-.664c-.2206-.7933-.5211-1.5663-.8935-2.2981l-.0507-.0998-.0993-.0506c-.7315-.37171-1.5045-.67255-2.2978-.89315l-.664-.18469.2533.64051c.2971.74983.5414 1.52903.727 2.31473z"/><path d="m29.129 12.1067.1285.1971.2308-.0492c.6724-.1441 1.3609-.2485 2.046-.3086l.4544-.0405-.1649-.4254c-.295-.7598-.6679-1.49394-1.1082-2.18206l-.1285-.20185-.2334.05147c-.7984.17606-1.5823.43247-2.3305.76369l-.4172.18305.293.35c.4425.5276.8567 1.0871 1.23 1.6623z"/><path d="m41.9771 24.9998.1113.1808c.4259.6889.8046 1.4144 1.1261 2.1563l.2735.6319.3394-.5992c.4048-.7161.7396-1.4775.9944-2.2639l.0343-.1059-.0343-.1059c-.2548-.7864-.5896-1.5477-.9944-2.2639l-.3394-.5992-.2735.6319c-.3215.742-.7002 1.4675-1.1261 2.1563z"/><path d="m37.5195 17.1767-.4251-.1652-.0401.4543c-.0608.685-.1644 1.3731-.3086 2.0456l-.0499.2315.1979.1279c.5747.374 1.1339.7878 1.6618 1.2297l.3495.293.1843-.4161c.3305-.749.5872-1.5329.7629-2.3309l.0514-.2331-.2013-.1294c-.6882-.4395-1.4227-.8128-2.1828-1.1073z"/><path d="m31.144 16.4714.1034.3818c.046.1707.0888.3421.1297.5144l.0484.2072.2069.0484c.1722.0398.3436.0834.5139.1294l.3822.1037.0476-.3936c.0292-.2432.0517-.4933.067-.7427l.023-.3865-.3858.0233c-.2498.0149-.4995.0374-.7435.0671z"/><path d="m36.9184 37.6635-.2061.0492-.0486.2057c-.1856.7855-.4299 1.5647-.7268 2.3145l-.2533.6405.664-.1847c.7933-.2206 1.5663-.5215 2.2977-.8932l.0994-.0506.0506-.0998c.3725-.7318.673-1.5047.8936-2.2973l.1847-.6647-.6405.2541c-.7502.2962-1.5284.5409-2.3147.7263z"/><path d="m39.0893 29.0226-.1843-.4162-.3495.2931c-.5279.4419-1.0871.8557-1.6618 1.2297l-.1979.1279.0499.2315c.1442.6725.2478 1.3607.3086 2.0456l.0401.4543.4251-.1652c.7601-.2945 1.4947-.6679 2.1829-1.1074l.2013-.1293-.0514-.2331c-.1758-.798-.4325-1.5819-.763-2.3309z"/><path d="m36.2491 24.9999-.2888-.2564c-.1843-.1637-.3764-.3241-.5696-.4761l-.3113-.2447-.1977.3437c-.088.152-.178.3031-.2707.4534l-.1115.18.1115.18c.0927.1504.1827.3015.2707.4535l.1977.3437.3113-.2447c.1933-.1521.3853-.3125.5696-.4762z"/><path d="m34.4892 20.653-.277-.1324c-1.3883-.6663-2.8701-1.1113-4.4101-1.3232-.2119-1.5391-.6562-3.0221-1.3228-4.4093l-.1328-.2774-.2899.1021c-1.4565.5128-2.8199 1.2462-4.0566 2.1821-1.2368-.936-2.6001-1.6693-4.0567-2.1821l-.2899-.1021-.1328.2774c-.6667 1.388-1.111 2.8702-1.3228 4.4093-1.54.212-3.0217.657-4.41 1.3232l-.2771.1324.1021.2899c.5125 1.4565 1.2462 2.8203 2.1825 4.057-.9363 1.2368-1.67 2.6006-2.1825 4.0571l-.1021.2898.2771.1325c1.3879.6663 2.8701 1.1113 4.41 1.3232.2119 1.5391.6562 3.0214 1.3228 4.4092l.1328.2774.2899-.1021c1.4565-.5128 2.8199-1.2461 4.0567-2.182 1.2367.936 2.6001 1.6693 4.0566 2.182l.2899.1021.1328-.2774c.6667-1.3871 1.111-2.8701 1.3228-4.4092 1.54-.212 3.0222-.657 4.4101-1.3232l.277-.1325-.1021-.2898c-.5125-1.4565-1.246-2.8203-2.1823-4.0571.9363-1.2367 1.6699-2.6005 2.1823-4.057zm-7.1212 7.715c-1.0629.611-2.1953 1.0809-3.3681 1.3981-1.1728-.3173-2.3052-.7871-3.3681-1.3981-.611-1.0629-1.0813-2.1953-1.3984-3.3681.3171-1.1728.7875-2.3052 1.3984-3.368 1.0629-.611 2.1953-1.081 3.3681-1.3981 1.1728.3172 2.3052.7871 3.3681 1.3981.611 1.0629 1.0813 2.1952 1.3985 3.368-.3173 1.1728-.7875 2.3053-1.3985 3.3681z"/><path d="m24.1803 43.0883-.18-.1115-.18.1115c-.6896.4263-1.4152.805-2.1571 1.126l-.632.2736.5998.339c.7156.4052 1.4775.7396 2.2634.9944l.1059.035.1059-.035c.786-.2548 1.5477-.5891 2.2635-.9944l.5996-.339-.632-.2736c-.7418-.3211-1.4673-.6998-2.157-1.126z"/><path d="m29.4884 37.7454-.2308-.0491-.1285.1971c-.3733.5751-.7875 1.1346-1.2301 1.6621l-.293.3492.4172.1839c.7482.3312 1.5321.5876 2.3305.7637l.2334.0515.1285-.2019c.4404-.6881.8132-1.4223 1.1082-2.182l.1649-.4255-.4544-.0405c-.685-.06-1.3735-.1644-2.0459-.3085z"/><path d="m32.5761 32.5374-.0476-.3936-.3822.1037c-.1702.0459-.3421.0896-.5139.1294l-.2069.0491-.0484.2065c-.0409.1722-.0837.3437-.1297.5143l-.1034.3819.3929.0475c.2439.0296.4936.0514.7435.067l.3858.0234-.023-.3866c-.0153-.2493-.0379-.4995-.0671-.7426z"/><path d="m11.3365 37.9183-.0488-.2057-.2061-.0492c-.7863-.1854-1.56444-.4301-2.31454-.7262l-.6406-.2541.18469.6647c.2205.7926.52097 1.5656.89345 2.2973l.05071.0998.09938.0506c.73131.3717 1.50441.6726 2.29781.8932l.664.1847-.2534-.6405c-.2969-.7498-.5412-1.529-.7266-2.3146z"/><path d="m18.8709 37.8934-.1286-.1971-.2307.0491c-.6725.1441-1.361.2485-2.0461.3086l-.4543.0405.1648.4255c.295.7597.6679 1.4939 1.1082 2.182l.1286.2019.2334-.0515c.7984-.1761 1.5823-.4325 2.3305-.7637l.4173-.1839-.293-.3492c-.4427-.5276-.8569-1.0871-1.2301-1.6622z"/><path d="m23.9997 37.249.2564-.2891c.1637-.184.3238-.3757.4761-.5698l.2447-.3108-.3429-.1972c-.1532-.088-.3043-.1784-.4543-.2711l-.18-.1115-.18.1115c-.15.0927-.3011.1832-.4543.2711l-.3429.1972.2446.3108c.1525.1941.3125.3858.4762.5698z"/><path d="m11.0816 12.3365.2061-.0491.0488-.2057c.1854-.7855.4297-1.5648.7266-2.31449l.2533-.6405-.6639.18469c-.7934.22059-1.5664.52144-2.29782.8932l-.09937.0506-.05072.0997c-.37247.7319-.67294 1.5048-.89344 2.2981l-.18469.6641.6406-.2541c.75009-.2963 1.52824-.541 2.31454-.7265z"/><path d="m18.5116 12.2545.2307.0492.1286-.1971c.3732-.5752.7875-1.1347 1.2301-1.6622l.293-.35-.4173-.18305c-.7482-.33122-1.5321-.58763-2.3305-.76369l-.2334-.05147-.1286.20185c-.4404.68812-.8132 1.42226-1.1082 2.18206l-.1648.4254.4543.0405c.6851.06 1.3736.1644 2.0461.3085z"/><path d="m23.9997 12.751-.2564.2891c-.1637.1839-.3237.3756-.4762.5697l-.2446.3109.3429.1971c.1531.0881.3043.1784.4543.2712l.18.1114.18-.1114c.15-.0928.3011-.1832.4543-.2712l.3429-.1971-.2447-.3109c-.1523-.1941-.3124-.3858-.4761-.5697z"/><path d="m4.78561 22.6627-.27356-.6319-.33938.5992c-.40481.7161-.7395 1.4775-.99441 2.2639l-.03422.1059.03422.1059c.25491.7864.5896 1.5477.99441 2.2639l.33938.5992.27356-.6319c.32147-.742.70013-1.4675 1.12613-2.1563l.11147-.1808-.11147-.1808c-.42591-.6888-.80466-1.4144-1.12613-2.1563z"/><path d="m8.91011 20.9774.18431.4161.3495-.293c.528-.4419 1.08708-.8557 1.66178-1.2297l.1979-.1279-.0498-.2315c-.1441-.6726-.2478-1.3607-.3087-2.0456l-.0401-.4543-.425.1652c-.76027.2945-1.4947.6678-2.18283 1.1073l-.20147.1294.05147.2331c.17578.798.43256 1.5819.76294 2.3309z"/><path d="m15.4235 17.4627.0475.3936.3822-.1037c.1703-.0459.3418-.0896.5141-.1294l.2068-.0484.0484-.2072c.0409-.1723.0838-.3437.1297-.5144l.1033-.3818-.3928-.0475c-.2439-.0297-.4937-.0522-.7435-.0671l-.3857-.0233.0231.3865c.0151.2494.0376.4995.0669.7427z"/><path d="m10.4804 32.8233.4251.1652.0401-.4543c.0608-.685.1645-1.3732.3087-2.0456l.0498-.2315-.1979-.1279c-.5747-.374-1.13379-.7878-1.66179-1.2297l-.3495-.2931-.18431.4162c-.33038.749-.58716 1.5329-.76294 2.3309l-.05147.2331.20147.1293c.68813.4395 1.42256.8129 2.18274 1.1074z"/><path d="m13.1183 24.3664-.1976-.3437-.3112.2447c-.1934.152-.3854.3124-.5698.4761l-.2887.2564.2887.2564c.1843.1637.3764.3242.5698.4762l.3112.2447.1976-.3437c.0881-.152.1781-.3031.2708-.4535l.1115-.18-.1115-.18c-.0927-.1505-.1827-.3016-.2708-.4536z"/><path d="m16.8555 33.5287-.1033-.3819c-.0459-.1706-.0888-.3421-.1297-.5143l-.0484-.2065-.2068-.0491c-.172-.0398-.3437-.0834-.5141-.1294l-.3822-.1037-.0475.3936c-.0293.2431-.0518.4933-.0669.7426l-.0231.3866.3857-.0234c.2497-.0156.4996-.0374.7435-.067z"/><path d="m26.0311 23.1188-.0507-.099-.099-.0506c-.572-.2922-1.1688-.5401-1.7748-.738l-.1063-.0352-.1064.0352c-.6059.1979-1.2028.4458-1.7748.738l-.099.0506-.0506.099c-.2919.572-.5401 1.1689-.738 1.7744l-.0347.1068.0347.106c.1979.6063.4461 1.2031.738 1.7752l.0506.099.099.0506c.5719.2922 1.1688.5401 1.7748.738l.1064.0352.1064-.0352c.6059-.1979 1.2028-.4458 1.7748-.738l.099-.0506.0506-.099c.292-.572.5401-1.1689.738-1.7752l.0347-.106-.0347-.1068c-.198-.6055-.4461-1.2024-.738-1.7744z"/></g></svg>